<?xml version="1.0" standalone="no"?>
<!DOCTYPE svg PUBLIC "-//W3C//DTD SVG 20010904//EN"
 "http://www.w3.org/TR/2001/REC-SVG-20010904/DTD/svg10.dtd">
<svg version="1.0" xmlns="http://www.w3.org/2000/svg"
 width="1000.000000pt" height="500.000000pt" viewBox="0 0 1000.000000 500.000000"
 preserveAspectRatio="xMidYMid meet">
<metadata>
Created by potrace 1.16, written by Peter Selinger 2001-2019
</metadata>
<g transform="translate(0.000000,500.000000) scale(0.100000,-0.100000)"
fill="#000000" stroke="none">
<path d="M0 2500 l0 -2500 5000 0 5000 0 0 2500 0 2500 -5000 0 -5000 0 0
-2500z m2518 1878 c7 -9 -30 -203 -129 -663 -76 -357 -142 -665 -145 -682 l-6
-33 71 0 c50 0 73 -4 77 -13 5 -13 -70 -380 -82 -398 -9 -14 -44 -10 -50 6 -3
8 8 81 25 162 17 82 31 156 31 166 0 16 -34 17 -583 17 l-584 0 -33 -157 c-18
-87 -37 -168 -41 -180 -10 -26 -46 -31 -55 -8 -6 15 59 342 76 383 9 20 17 22
75 22 l65 0 46 63 c189 256 324 616 440 1172 16 77 33 135 42 143 23 18 745
18 760 0z m5528 4 c6 -4 15 -26 19 -50 28 -167 288 -158 369 13 9 18 23 35 31
39 19 7 45 -3 45 -18 0 -25 -62 -116 -102 -150 -100 -86 -278 -88 -355 -5 -45
49 -71 160 -40 172 17 8 21 8 33 -1z m-1817 -372 c252 -41 366 -294 281 -626
-60 -234 -205 -408 -385 -459 -208 -61 -412 33 -466 214 -7 23 -16 38 -20 34
-4 -4 -33 -134 -64 -288 -32 -154 -62 -286 -68 -292 -11 -15 -43 -17 -52 -3
-9 14 284 1383 298 1392 15 10 19 10 35 -1 12 -7 11 -21 -2 -86 -9 -42 -16
-81 -16 -87 0 -5 25 18 55 51 85 92 174 139 290 154 17 2 35 5 40 5 6 1 39 -3
74 -8z m-3471 -29 c8 -5 59 -203 123 -476 60 -258 111 -470 112 -472 2 -2 140
205 307 459 166 255 312 471 323 481 27 24 71 19 75 -8 3 -23 -193 -967 -208
-1002 -10 -25 -47 -31 -56 -10 -2 7 36 206 86 442 50 236 89 435 88 442 -2 6
-133 -189 -293 -433 -159 -245 -295 -450 -302 -455 -6 -6 -24 -9 -40 -7 l-27
3 -105 457 c-58 252 -107 455 -110 452 -4 -3 -49 -209 -101 -457 -92 -436 -96
-452 -119 -455 -13 -2 -27 0 -32 5 -4 4 39 231 97 503 57 272 104 497 104 501
0 4 7 15 16 23 17 18 42 20 62 7z m1201 0 c12 -8 -3 -88 -83 -471 -53 -254
-95 -464 -93 -467 3 -2 189 204 414 459 225 255 417 469 426 476 24 20 71 11
75 -14 3 -24 -192 -965 -208 -1001 -10 -25 -47 -31 -56 -10 -2 7 39 217 91
467 52 249 94 457 93 461 -2 4 -191 -206 -422 -467 -417 -472 -419 -474 -457
-474 -34 0 -39 3 -39 23 0 51 209 1010 222 1018 16 11 20 11 37 0z m1680 -5
c9 -11 8 -34 -3 -48 0 -1 -91 -4 -201 -7 l-200 -6 -100 -475 c-55 -261 -104
-481 -108 -487 -11 -17 -46 -17 -53 0 -3 10 162 820 193 944 l5 23 -193 2
-194 3 -3 24 c-2 13 2 28 10 32 7 5 198 9 424 9 337 0 414 -2 423 -14z m1209
5 c11 -6 -6 -100 -83 -466 -53 -251 -94 -462 -93 -467 2 -5 182 192 400 439
217 246 407 460 421 476 29 31 84 38 94 12 5 -15 -189 -963 -208 -1012 -10
-26 -46 -31 -55 -8 -3 8 37 220 90 471 53 251 95 458 93 460 -2 2 -192 -210
-422 -471 -412 -467 -420 -475 -457 -475 -20 0 -39 4 -42 8 -2 4 42 230 100
502 57 272 104 497 104 501 0 10 29 39 38 39 4 0 13 -4 20 -9z m1000 0 c11 -6
-6 -100 -83 -466 -53 -251 -94 -462 -93 -467 2 -5 182 192 400 439 217 246
407 460 421 476 29 31 84 38 94 12 5 -15 -189 -963 -208 -1012 -10 -26 -46
-31 -55 -8 -3 8 37 220 90 471 53 251 95 458 93 460 -2 2 -192 -210 -422 -471
-412 -467 -420 -475 -457 -475 -20 0 -39 4 -42 8 -2 4 42 230 100 502 57 272
104 497 104 501 0 10 29 39 38 39 4 0 13 -4 20 -9z m-6098 -1819 c82 -27 131
-60 169 -115 110 -160 67 -421 -92 -551 -104 -85 -166 -96 -554 -103 -178 -3
-323 -6 -323 -7 -1 0 -31 -145 -68 -321 l-67 -320 -28 -3 c-16 -2 -29 2 -32
10 -9 22 291 1419 307 1430 7 5 141 7 318 5 276 -4 311 -6 370 -25z m6750 9
c5 -11 10 -31 10 -44 0 -41 41 -91 88 -106 95 -30 204 10 259 94 44 67 51 75
69 75 45 0 20 -73 -52 -150 -102 -109 -286 -123 -376 -29 -61 64 -75 179 -22
179 7 0 18 -9 24 -19z m-4955 -373 c161 -40 232 -175 178 -333 -20 -59 -93
-136 -146 -156 -20 -7 -37 -15 -36 -19 0 -3 19 -18 42 -35 61 -45 92 -112 92
-200 -1 -103 -26 -168 -94 -236 -40 -39 -73 -62 -114 -78 -170 -63 -377 -41
-482 51 -66 58 -97 125 -103 219 -4 64 -2 77 12 82 32 12 43 -3 49 -68 16
-165 108 -244 298 -253 114 -5 182 11 255 61 71 49 105 110 112 196 6 86 0
112 -39 155 -42 49 -98 67 -230 74 -113 7 -114 7 -114 32 l0 25 130 5 c153 7
197 22 262 92 31 34 44 59 52 99 19 98 -13 169 -96 210 -42 21 -62 24 -168 24
-116 0 -123 -1 -188 -33 -79 -39 -125 -93 -151 -176 -11 -36 -24 -57 -37 -61
-47 -15 -51 25 -11 110 35 72 70 116 126 154 105 71 260 94 401 59z m-962 -3
c75 -19 130 -55 164 -107 23 -34 29 -55 31 -117 3 -65 -6 -120 -62 -372 -87
-389 -87 -399 1 -399 53 0 54 0 51 -27 -3 -27 -6 -28 -65 -31 -56 -3 -66 0
-88 22 -20 20 -25 35 -25 76 0 27 -2 50 -4 50 -3 0 -28 -22 -57 -50 -202 -194
-546 -168 -636 47 -11 28 -14 60 -11 123 5 100 26 148 88 204 80 72 182 99
440 115 241 16 270 27 296 118 24 82 15 172 -21 219 -46 60 -101 78 -235 79
-106 0 -120 -2 -172 -28 -84 -41 -143 -116 -181 -229 -7 -19 -52 -25 -62 -8
-3 5 8 44 26 86 36 86 107 167 174 199 95 45 243 57 348 30z m1310 -19 c8 -8
50 -196 101 -453 48 -241 90 -449 95 -462 6 -20 46 46 270 440 144 255 270
470 279 477 21 16 46 11 50 -10 3 -14 -577 -1041 -680 -1205 -75 -120 -164
-173 -285 -173 -53 0 -54 1 -51 28 3 26 6 27 69 34 76 7 111 23 155 70 30 31
125 182 140 221 3 9 -40 245 -97 523 -86 424 -100 507 -88 515 19 12 25 11 42
-5z m975 5 c8 -5 59 -203 123 -476 60 -258 111 -470 112 -472 2 -2 140 205
307 459 166 255 312 471 323 481 27 24 71 19 75 -8 3 -23 -193 -967 -208
-1002 -10 -25 -47 -31 -56 -10 -2 7 36 206 86 442 50 236 89 435 88 442 -2 6
-133 -189 -293 -433 -159 -245 -295 -450 -302 -455 -6 -6 -24 -9 -40 -7 l-27
3 -105 457 c-58 252 -107 455 -110 452 -4 -3 -49 -209 -101 -457 -92 -436 -96
-452 -119 -455 -13 -2 -27 0 -32 5 -4 4 39 231 97 503 57 272 104 497 104 501
0 4 7 15 16 23 17 18 42 20 62 7z m1201 0 c12 -8 7 -45 -32 -232 -25 -122 -44
-226 -41 -231 7 -11 651 -10 658 1 3 5 26 107 51 227 25 120 52 225 60 233 18
19 45 7 45 -20 0 -29 -198 -968 -210 -996 -10 -25 -47 -31 -56 -10 -2 7 18
118 46 246 27 128 50 237 50 242 0 5 -139 9 -333 9 l-333 0 -53 -247 c-29
-136 -55 -251 -57 -255 -3 -5 -16 -8 -30 -8 -18 0 -24 5 -24 23 0 51 209 1010
222 1018 16 11 20 11 37 0z m1008 -7 c3 -8 -13 -102 -36 -208 -22 -105 -41
-202 -41 -214 l0 -22 220 0 c120 0 242 -5 269 -11 112 -24 185 -123 185 -248
-1 -136 -67 -242 -186 -297 l-63 -29 -307 -3 -308 -3 0 23 c0 52 209 1011 222
1019 20 13 38 11 45 -7z m951 4 c7 -9 -21 -162 -94 -508 -57 -272 -108 -502
-113 -510 -10 -18 -40 -25 -52 -13 -11 11 197 1010 213 1031 6 6 16 12 23 12
7 0 17 -6 23 -12z m270 -9 c2 -9 -40 -221 -92 -470 -53 -249 -93 -455 -90
-458 3 -3 8 -1 12 5 4 6 191 218 415 472 282 320 416 464 434 468 33 9 59 -8
56 -35 -7 -61 -207 -988 -216 -998 -11 -15 -43 -17 -51 -4 -3 5 37 212 89 461
52 249 95 457 95 462 0 5 -5 6 -10 3 -6 -4 -195 -216 -421 -471 -393 -445
-411 -464 -445 -464 -21 0 -37 6 -40 14 -8 21 204 1019 219 1028 18 12 41 5
45 -13z"/>
<path d="M1795 4298 c-142 -648 -242 -935 -414 -1195 -34 -50 -61 -94 -61 -97
0 -3 191 -6 424 -6 396 0 425 1 430 18 6 21 276 1287 276 1296 0 3 -146 6
-325 6 l-325 0 -5 -22z"/>
<path d="M6091 3949 c-201 -35 -359 -246 -401 -538 -48 -324 172 -526 457
-419 70 25 182 132 230 218 101 178 127 436 60 580 -58 123 -193 185 -346 159z"/>
<path d="M1105 2108 c-7 -23 -135 -622 -135 -636 0 -11 63 -13 333 -10 318 3
334 4 388 26 78 31 142 90 179 165 92 187 40 384 -117 443 -41 15 -89 18 -346
22 -241 3 -298 1 -302 -10z"/>
<path d="M2620 1294 c-24 -8 -114 -19 -200 -24 -178 -12 -252 -23 -326 -51
-186 -70 -211 -330 -40 -422 35 -19 57 -22 151 -22 105 0 113 2 180 34 148 72
220 188 283 459 5 23 7 42 3 41 -3 -1 -26 -7 -51 -15z"/>
<path d="M6976 1253 c-5 -18 -96 -442 -96 -450 0 -2 120 -3 268 -1 265 3 267
3 324 30 97 45 144 136 136 261 -3 51 -10 72 -31 101 -53 68 -63 71 -344 74
-235 3 -252 2 -257 -15z"/>
</g>
</svg>
